<svg xmlns="http://www.w3.org/2000/svg" version="1.1" viewBox="-5.0 -10.0 110.0 135.0">
 <path d="m169.36 50.578c-1.1055 0-2-0.89453-2-2s0.89453-2 2-2h39.422-0.003906c1.1055 0 2 0.89453 2 2s-0.89453 2-2 2zm23.059 3.6328h29.34l-0.003907-19.16h-16.398c-3.8672 0-7-3.1367-7-7v-16.398l-38.961-0.003906c-1.6523 0.007812-2.9922 1.3477-3 3v71.891c0.011718 1.6523 1.3477 2.9883 3 3h59.34c1.6562-0.007812 2.9961-1.3477 3-3v-5.1875h-29.316c-1.1055 0-2-0.89844-2-2v-23.137c0-1.1055 0.89453-2 2-2zm33.316 0h18.66c0.53125 0 1.0391 0.21094 1.4141 0.58594s0.58594 0.88281 0.58594 1.4141v23.141c0 0.52734-0.21094 1.0391-0.58594 1.4141s-0.88281 0.58594-1.4141 0.58594h-18.652v5.1875c-0.007813 3.8594-3.1367 6.9883-7 7h-59.348c-3.8633 0-7-3.1367-7-7v-71.879c0.007812-3.8594 3.1406-6.9922 7-7h40.984c0.42188 0.007813 0.83203 0.14844 1.168 0.40234l0.039063 0.035156c0.0625 0.050782 0.125 0.10547 0.18359 0.16406l23.379 23.379c0.019531 0.019531 0.039062 0.039063 0.054687 0.0625 0.011719 0.015625 0.027344 0.027344 0.039063 0.042969 0.35938 0.40234 0.53125 0.93359 0.48438 1.4688v0.011718zm16.66 3.9883h-47.977v19.141h47.977zm70.273-32.98c0-1.1016 0.89453-2 2-2h6.1992c4.5312 0 8.2031 3.6758 8.2031 8.207s-3.6719 8.207-8.2031 8.207h-6.1992c-1.1055 0-2-0.89453-2-2zm8.2109 2h-4.1992v8.4141h4.1992c3.6875 0 5.6445-4.5039 2.9688-7.1797v0.003906c-0.78906-0.79297-1.8555-1.2383-2.9727-1.2383zm17.27-4h-0.003906c3.3164 0 6.3047 2 7.5742 5.0625 1.2695 3.0664 0.57031 6.5938-1.7773 8.9375-2.3438 2.3438-5.8711 3.0469-8.9336 1.7773-3.0664-1.2695-5.0625-4.2578-5.0625-7.5742 0-4.5312 3.6719-8.2031 8.1992-8.2031zm2.9766 5.2305c-2.6406-2.6406-7.1836-0.76562-7.1836 2.9766 0 3.7422 4.543 5.6133 7.1836 2.9688l-0.003906 0.003907c1.6406-1.6445 1.6406-4.3008 0-5.9453zm17.633 5.9492c0.375-0.375 0.88281-0.58594 1.4141-0.58984 0.53125 0 1.043 0.21094 1.418 0.58594 0.78516 0.78125 0.78516 2.0469 0.007812 2.832-2.3477 2.3438-5.875 3.043-8.9375 1.7734s-5.0625-4.2578-5.0625-7.5742c0-3.3164 2-6.3047 5.0625-7.5742 3.0625-1.2695 6.5898-0.57031 8.9375 1.7734 0.78125 0.78125 0.77734 2.0508-0.003906 2.8281-0.78125 0.78125-2.0469 0.78125-2.8281 0-2.6406-2.6406-7.1836-0.76172-7.1836 2.9766 0 3.7383 4.5391 5.6133 7.1836 2.9688zm-910.44 38.629c-1.1055 0-2-0.89453-2-2 0-1.1055 0.89453-2 2-2h27.164c0.53125 0 1.0391 0.21094 1.4141 0.58594s0.58594 0.88281 0.58594 1.4141-0.21094 1.0391-0.58594 1.4141-0.88281 0.58594-1.4141 0.58594zm0 9.0547c-1.1055 0-2-0.89453-2-2s0.89453-2 2-2h27.164c0.53125 0 1.0391 0.21094 1.4141 0.58594s0.58594 0.88281 0.58594 1.4141-0.21094 1.0391-0.58594 1.4141-0.88281 0.58594-1.4141 0.58594zm0-34.07c-1.1055 0-2-0.89844-2-2 0-1.1055 0.89453-2 2-2h27.164c0.53125 0 1.0391 0.21094 1.4141 0.58594s0.58594 0.88281 0.58594 1.4141c0 0.52734-0.21094 1.0391-0.58594 1.4141s-0.88281 0.58594-1.4141 0.58594zm0 9.0547v-0.003906c-1.1055 0-2-0.89453-2-2 0-1.1016 0.89453-2 2-2h27.164c0.53125 0 1.0391 0.21094 1.4141 0.58594s0.58594 0.88672 0.58594 1.4141c0 0.53125-0.21094 1.0391-0.58594 1.4141s-0.88281 0.58594-1.4141 0.58594zm303.86-14.48c0 0.52734-0.21094 1.0391-0.58594 1.4141s-0.88672 0.58594-1.4141 0.58594c-1.1055 0-2-0.89844-2-2v-6.0625c0-1.1055 0.89453-2 2-2 0.52734 0 1.0391 0.21094 1.4141 0.58594s0.58594 0.88281 0.58594 1.4141zm-12.902 0.57812-0.003906-0.003906c0.26562 0.45703 0.33594 1 0.19922 1.5117-0.13672 0.50781-0.47266 0.94141-0.92969 1.207-0.95312 0.54297-2.168 0.21875-2.7227-0.73438l-3.0234-5.25c-0.54297-0.95312-0.21875-2.168 0.73047-2.7188 0.95703-0.54297 2.1719-0.21484 2.7227 0.73438zm25.254 1.9844-0.003906-0.003907c-0.26562 0.46094-0.69922 0.79297-1.207 0.92969-0.51172 0.14062-1.0547 0.066406-1.5117-0.19531-0.45703-0.26172-0.79297-0.69531-0.93359-1.207-0.13672-0.50781-0.066406-1.0508 0.19922-1.5117l3.0273-5.25c0.55078-0.94922 1.7656-1.2773 2.7188-0.73438 0.95312 0.55078 1.2812 1.7656 0.73828 2.7188zm-645.2 32.453c-1.1055 0-2-0.89844-2-2 0-1.1055 0.89453-2 2-2h39.348c0.52734 0 1.0391 0.21094 1.4141 0.58594s0.58594 0.88281 0.58594 1.4141c0 0.52734-0.21094 1.0391-0.58594 1.4141s-0.88672 0.58594-1.4141 0.58594zm0-13.504c-1.1055 0-2-0.89844-2-2 0-1.1055 0.89453-2 2-2h39.348c0.52734 0 1.0391 0.21094 1.4141 0.58594s0.58594 0.88281 0.58594 1.4141c0 0.52734-0.21094 1.0391-0.58594 1.4141s-0.88672 0.58594-1.4141 0.58594zm0-27c-1.1055 0-2-0.89844-2-2 0-1.1055 0.89453-2 2-2h20.664c0.53125 0 1.0391 0.21094 1.4141 0.58594s0.58594 0.88281 0.58594 1.4141c0 0.52734-0.21094 1.0391-0.58594 1.4141s-0.88281 0.58594-1.4141 0.58594zm0 13.504c-1.1055 0-2-0.89844-2-2 0-1.1055 0.89453-2 2-2h39.348c0.52734 0 1.0391 0.21094 1.4141 0.58594s0.58594 0.88281 0.58594 1.4141c0 0.52734-0.21094 1.0391-0.58594 1.4141s-0.88672 0.58594-1.4141 0.58594zm1078.6 12.137c0-1.1055 0.89453-2 2-2h5.0469-0.003906c3.6445 0.007813 6.6836 2.793 7.0117 6.4219 0.33203-3.7578 3.5625-6.5859 7.332-6.418 3.7656 0.16406 6.7344 3.2695 6.7344 7.0391s-2.9688 6.8711-6.7344 7.0391c-3.7695 0.16797-7-2.6641-7.332-6.418-0.32812 3.6289-3.3633 6.4141-7.0117 6.4219h-5.0469c-1.1055 0-2-0.89453-2-2zm7.043 2h-3.043v6.0898h3.043c2.6562 0 4.0898-3.2539 2.1484-5.1992l-0.003907-0.003906c-0.57031-0.57031-1.3398-0.89062-2.1484-0.89453zm16.18 0.89453c-1.9102-1.9141-5.1992-0.55469-5.1992 2.1484s3.2852 4.0664 5.1992 2.1523l-0.003907 0.003906c0.57422-0.57031 0.89453-1.3438 0.89453-2.1523s-0.32031-1.582-0.89453-2.1523zm14.34 4.3008-0.003906 0.003906c0.78125-0.78125 2.0469-0.78125 2.8281 0s0.78125 2.0469 0 2.8281c-2.0156 2.0156-5.043 2.6172-7.6758 1.5273-2.6328-1.0898-4.3477-3.6602-4.3477-6.5078s1.7148-5.418 4.3477-6.5078c2.6328-1.0898 5.6602-0.48828 7.6758 1.5273 0.78125 0.78125 0.78125 2.0469 0 2.8281s-2.0469 0.78125-2.8281 0c-1.9141-1.9141-5.1992-0.55078-5.1992 2.1484s3.2852 4.0703 5.1992 2.1523zm-1063.6 0.51562c0.023437-0.039063 0.046875-0.078125 0.066406-0.11328l16.039-27.785-3.3633-1.9492-18.578 32.199 3.3633 1.9414zm3.7539 1.4688v14.551l-0.003906 0.003906c-0.003906 3.8633-3.1367 6.9922-7 6.9922h-59.211c-3.8594 0-6.9922-3.1289-7-6.9922v-71.742c0-1.8555 0.73828-3.6367 2.0508-4.9492s3.0938-2.0508 4.9492-2.0508h40.871c0.43359-0.003907 0.85547 0.13672 1.1992 0.39844 0.015625 0.011719 0.027344 0.023438 0.042969 0.035156 0.0625 0.046876 0.125 0.097657 0.17969 0.15625l23.344 23.34c0.035156 0.035156 0.066406 0.074219 0.10156 0.10938h-0.003907c0.35547 0.40234 0.52734 0.93359 0.47656 1.4648v14.965l9.9648-17.262c1-1.7461 3.1797-2.5586 4.9219-1.5352l4.2266 2.4375c1.7227 1 2.1328 3.2734 1.1172 5.0312l-3.3672 5.8398c-0.023437 0.035156-0.039062 0.074218-0.0625 0.10937l0.003906-0.007812c-0.019531 0.035156-0.039062 0.070312-0.0625 0.10156zm-3.9844-16.816-0.003906-20.016h-16.363c-3.8633 0-6.9961-3.1289-7-6.9922v-16.355h-38.863c-1.6562 0-3 1.3438-3 3v71.738c0 1.6602 1.3438 3 3 3h59.234c0.79297 0 1.5586-0.31641 2.1211-0.87891s0.87891-1.3242 0.87891-2.1211v-7.7305l-0.015624 0.023437-0.023438 0.023438-0.011719 0.015625h-0.011719v0.011718l-0.023437 0.023438h-0.011719v0.011719l-0.015625 0.015625h-0.011719l-0.050781 0.050781h-0.011719l-0.015624 0.015625h-0.011719l-8.7227 7.2578c-0.84766 0.69531-2.0977 0.57813-2.8008-0.26172-0.375-0.41797-0.55469-0.97656-0.49609-1.5352l1.9258-11.199c0.046875-0.26562 0.14453-0.52344 0.29297-0.75zm-16.363-24.016 13.535 0.003906-16.52-16.527v13.535c0 1.6562 1.3438 3 3 3zm615.6 26.375c-11.074 12.273-31.855 12.273-42.918-0.015626l-0.003907 0.003907c-0.6875-0.76562-0.67969-1.9258 0.011719-2.6836 8.3008-9.1211 22.016-11.648 33.297-6.8125 3.6602 1.5508 6.9414 3.8789 9.6172 6.8242 0.69141 0.76172 0.69141 1.9258 0 2.6875zm-11.191 3.1406c2.5469-1.082 4.8828-2.6016 6.9062-4.4844-3.5703-3.3594-8.0859-5.4219-12.812-6.1992v-0.003907c2.0195 1.4219 3.2227 3.7344 3.2188 6.2031 0 2.4688-1.2031 4.7812-3.2227 6.1992 2.0312-0.33203 4.0156-0.91016 5.9102-1.7227zm-14.648-10.691c-4.7266 0.78906-9.2422 2.8516-12.812 6.1992 3.5508 3.3242 8.0625 5.4141 12.812 6.1992-2.0195-1.418-3.2188-3.7344-3.2188-6.1992 0-2.4688 1.2031-4.7812 3.2188-6.2031zm6.9102 3.668c-2.2578-2.2578-6.1289-0.65234-6.1289 2.5391 0 3.1914 3.8711 4.7891 6.1289 2.5352v-0.003906c1.3945-1.4023 1.3945-3.668 0-5.0742zm-178.28-22.242-4 4 2.5547 2.5586 4-4zm1.3828 9.3984 22.762 22.758 4-4-22.77-22.762zm26.492 24.695 3.2422 1.0391-1.0352-3.2422zm-34.824-32.801 4.2383-4.2383c1.4297-1.4297 3.7891-1.6328 5.2422-0.17578l4.2656 4.2656 25.59 25.602v-0.003906c0.26172 0.26172 0.44922 0.59375 0.53516 0.95312l3.168 9.8984c0.22656 0.71094 0.039062 1.4922-0.48828 2.0195-0.52734 0.53125-1.3047 0.72266-2.0195 0.49609l-9.9023-3.1758-0.035157-0.011719h-0.14453l-0.039062-0.019531-0.035157-0.011719-0.023437-0.011718h-0.03125l-0.023438-0.011719-0.027344-0.011719h-0.011718l-0.027344-0.011718h-0.042969l-0.019531-0.011719-0.027344-0.015625h-0.011718l-0.035157-0.019532c-0.011719 0-0.023437-0.019531-0.035156-0.023437l-0.035156-0.015625-0.027344-0.023438h-0.011719l0.003906 0.007813c-0.011718-0.011719-0.023437-0.019531-0.035156-0.027344-0.007812-0.011719-0.019531-0.023437-0.035156-0.027343-0.011719-0.011719-0.023438-0.023438-0.035156-0.035157l-0.035156-0.035156-0.039063-0.035156v0.003906c-0.011719-0.011719-0.023437-0.023437-0.035156-0.03125l-29.902-29.902c-1.457-1.457-1.2539-3.8125 0.17578-5.2422zm-143.4 7.9453h15.93-0.003906c0.53125 0 1.0391 0.21094 1.4141 0.58594s0.58594 0.88281 0.58594 1.4141v15.93c0 0.53125-0.21094 1.0391-0.58594 1.4141s-0.88281 0.58594-1.4141 0.58594h-15.93c-1.1016 0-2-0.89453-2-2v-15.938c0-1.1016 0.89844-2 2-2zm13.93 4h-11.934v11.934h11.934zm-4.0664 2.6602c0.86328-0.67969 2.1133-0.53125 2.7969 0.32812 0.67969 0.86328 0.53125 2.1172-0.32812 2.8008l-4.4219 3.4922c-0.80469 0.62891-1.957 0.55078-2.6719-0.18359l-1.8555-1.9141h0.003906c-0.76562-0.79687-0.74219-2.0586 0.050782-2.8242 0.79688-0.76172 2.0586-0.73828 2.8203 0.054687l0.60156 0.61719zm-9.8594 18.367h15.93c0.53125 0 1.0391 0.21094 1.4141 0.58594s0.58594 0.88281 0.58594 1.4141v15.93c0 0.52734-0.21094 1.0391-0.58594 1.4141s-0.88281 0.58594-1.4141 0.58594h-15.93c-1.1055 0-2-0.89844-2-2v-15.93c0-1.1055 0.89453-2 2-2zm13.93 4h-11.934v11.918h11.934zm-4.0664 2.6562c0.86328-0.67969 2.1172-0.53125 2.8008 0.32813 0.67969 0.86719 0.53125 2.1172-0.33203 2.8008l-4.4219 3.4922c-0.80469 0.62891-1.957 0.55078-2.668-0.18359l-1.8555-1.9141c-0.75781-0.79688-0.73438-2.0547 0.054687-2.8203 0.79297-0.76172 2.0547-0.73828 2.8203 0.054687l0.60156 0.61719zm427.04-56.484-3.6562 3.6562 2.2852 2.293 3.6562-3.6641zm1.457 8.7773 11.762 11.766 9.7031 9.7031 3.6641-3.6602-21.473-21.473zm25.199 23.398 2.7305 0.87109-0.87891-2.7383zm-33.328-31.16 4.0234-4.0234c1.3984-1.3984 3.7031-1.6016 5.125-0.17188l4.0469 4.0469 3.2891 3.2852 0.003906-6.8281c0.003906-3.9844 3.2344-7.2148 7.2227-7.2227h42.766-0.003906c0.41797 0.003906 0.82812 0.14062 1.1641 0.39062 0.015624 0.011719 0.027343 0.027344 0.046874 0.039063h-0.003906c0.066406 0.050781 0.125 0.10547 0.17969 0.16406l24.402 24.402c0.035156 0.03125 0.070312 0.066406 0.10156 0.10547 0.35156 0.40234 0.52344 0.92969 0.47656 1.4648v55.656h0.011719-0.003906c-0.003906 3.9844-3.2344 7.2148-7.2188 7.2227h-61.922c-3.9844-0.007812-7.2148-3.2383-7.2227-7.2227v-49.527l-12.602-12.602-4.0469-4.043c-1.4258-1.4258-1.2305-3.7305 0.16406-5.125zm20.492 7.1484 17.035 17.035h7.5c0.53125 0 1.0391 0.21094 1.4141 0.58594s0.58594 0.88281 0.58594 1.4141v15.125c0 0.53125-0.21094 1.0391-0.58594 1.4141s-0.88281 0.58594-1.4141 0.58594h-15.125c-1.1055 0-2-0.89453-2-2v-8.1211l-7.3984-7.4141v45.535c0.003906 1.7773 1.4414 3.2188 3.2188 3.2188h61.922c1.7734-0.003906 3.2148-1.4414 3.2188-3.2188v-53.801h-17.199c-3.9883-0.003906-7.2148-3.2344-7.2227-7.2227v-17.195h-40.727c-1.7773 0.003906-3.2148 1.4414-3.2188 3.2188zm18.523 21.039 2.0234 6.3086h0.003907c0.22266 0.71094 0.035156 1.4922-0.49219 2.0195-0.52734 0.52734-1.3047 0.71875-2.0156 0.49609l-6.6289-2.1211v4.4219h11.125v-11.125zm14.641 27.023c-1.1055 0-2-0.89453-2-2s0.89453-2 2-2h25.801c0.53125 0 1.0391 0.21094 1.4141 0.58594s0.58594 0.88281 0.58594 1.4141-0.21094 1.0391-0.58594 1.4141-0.88281 0.58594-1.4141 0.58594zm0 8.6016c-1.1055 0-2-0.89844-2-2 0-1.1055 0.89453-2 2-2h25.801c0.53125 0 1.0391 0.21094 1.4141 0.58594s0.58594 0.88281 0.58594 1.4141c0 0.52734-0.21094 1.0391-0.58594 1.4141s-0.88281 0.58594-1.4141 0.58594zm0-32.352c-1.1055 0-2-0.89453-2-2s0.89453-2 2-2h25.801c0.53125 0 1.0391 0.21094 1.4141 0.58594s0.58594 0.88281 0.58594 1.4141-0.21094 1.0391-0.58594 1.4141-0.88281 0.58594-1.4141 0.58594zm0 8.6016c-1.1055 0-2-0.89844-2-2 0-1.1055 0.89453-2 2-2h25.801c0.53125 0 1.0391 0.21094 1.4141 0.58594s0.58594 0.88281 0.58594 1.4141c0 0.52734-0.21094 1.0391-0.58594 1.4141s-0.88281 0.58594-1.4141 0.58594zm-940.4 36.762 43-0.003906v-18.223c0.003907-4.1406 3.3555-7.4922 7.4922-7.5h18.227l0.003907-56.789h-0.011719c-0.011719-1.9297-1.5703-3.4883-3.5-3.4961h-65.227c-1.9297 0.003907-3.4922 1.5664-3.4961 3.4961v79c0 1.9336 1.5664 3.5 3.4961 3.5039zm45 4h-45v-0.003906c-4.1406-0.007813-7.4961-3.3594-7.5-7.5v-79c0.007813-4.1367 3.3594-7.4922 7.5-7.5h65.227c4.1367 0.007813 7.4922 3.3594 7.5 7.5h-0.011719v58.617c0.046875 0.53516-0.125 1.0625-0.47656 1.4648-0.03125 0.039063-0.0625 0.078125-0.10156 0.10938l-25.715 25.699c-0.054687 0.058594-0.11719 0.10938-0.17969 0.15625l-0.011719 0.011719-0.035156 0.023437c-0.33594 0.25781-0.74609 0.39844-1.1719 0.40234h-0.027344zm20.887-25.711h-15.387l-0.003906-0.003906c-1.9258 0.007812-3.4844 1.5625-3.4961 3.4883v15.387zm1272.8-56.719h9.6914v-4.0859c0.003907-4.1406 3.3594-7.4961 7.5-7.5h65.227c4.1367 0.007813 7.4922 3.3594 7.5 7.5v58.625c0.050781 0.53906-0.125 1.0703-0.48438 1.4766l-0.039062 0.039062v-0.003906c-0.019532 0.019531-0.039063 0.039063-0.054688 0.058594l-25.711 25.707c-0.058593 0.054688-0.12109 0.10938-0.18359 0.15625l-0.011719 0.011719v0.003906c-0.007812 0.003906-0.019531 0.011719-0.027344 0.019531-0.33594 0.25781-0.75 0.39844-1.1719 0.40234h-45.043c-4.1406-0.007812-7.4961-3.3633-7.5-7.5v-42.43h-9.6914c-1.1055 0-2-0.89453-2-2v-28.477c0-1.1055 0.89453-2 2-2zm13.691 0h50.277c0.53125 0 1.0391 0.21094 1.4141 0.58594s0.58594 0.88281 0.58594 1.4141v28.477c0 0.53125-0.21094 1.0391-0.58594 1.418-0.375 0.375-0.88281 0.58203-1.4141 0.58203h-50.277v42.438c0.003907 1.9336 1.5664 3.4961 3.5 3.5039h43.012v-18.215c0.007813-4.1406 3.3633-7.4922 7.5-7.5h18.219l0.003907-56.789h-0.011719c-0.007813-1.9297-1.5703-3.4922-3.4961-3.4961h-65.227c-1.9297 0.007813-3.4922 1.5664-3.5 3.4961zm48.273 4h-59.969v24.477h59.961zm21.125 52.699h-15.387c-1.9297 0.003907-3.4961 1.5664-3.5039 3.5v15.387zm-57.281 12.848c-1.1055 0-2-0.89453-2-2 0-1.1016 0.89453-2 2-2h22.75c1.1055 0 2 0.89844 2 2 0 1.1055-0.89453 2-2 2zm0-25.148c-1.1055 0-2-0.89453-2-2s0.89453-2 2-2h48c1.1055 0 2 0.89453 2 2s-0.89453 2-2 2zm0 12.574c-1.1055 0-2-0.89453-2-2s0.89453-2 2-2h22.75c1.1055 0 2 0.89453 2 2s-0.89453 2-2 2zm-1340.8-41.418c-0.77734-0.78125-0.77734-2.043 0-2.8242 0.78125-0.77734 2.043-0.77734 2.8242 0l4.1836 4.1797-0.18359-12.184 0.003906-0.003906c-0.007813-1.0938 0.87109-1.9922 1.9648-2.0117 1.1016-0.007812 2.0039 0.87109 2.0195 1.9688l0.18359 12.375 4.3242-4.3242c0.375-0.375 0.88281-0.58594 1.4141-0.58594s1.0391 0.21094 1.4141 0.58594c0.77734 0.78125 0.77734 2.043 0 2.8242l-7.6602 7.6641c-0.78125 0.78125-2.0469 0.78125-2.8281 0zm18.777 10.184c0-1.1055 0.89844-2 2-2 0.53125 0 1.0391 0.20703 1.4141 0.58203s0.58594 0.88672 0.58594 1.418v4.6133c0 0.52734-0.21094 1.0391-0.58594 1.4141s-0.88281 0.58594-1.4141 0.58594h-23.398c-1.1602 0-2.0703-0.9375-1.9883-2.1992l0.074218-4.332h-0.003906c0.023438-1.1016 0.92578-1.9766 2.0273-1.9648 1.0977 0.023438 1.9727 0.92578 1.957 2.0234l-0.042969 2.4766h19.379zm-26.012 15.02v-0.003906c-1.1016 0-2-0.89453-2-2s0.89844-2 2-2h32.367c0.53125 0 1.0391 0.21094 1.4141 0.58594s0.58594 0.88281 0.58594 1.4141-0.21094 1.0391-0.58594 1.4141-0.88281 0.58594-1.4141 0.58594zm7.3711 7.6016v-0.003907c-1.1055 0-2-0.89844-2-2 0-1.1055 0.89453-2 2-2h17.625c0.53125 0 1.0391 0.21094 1.4141 0.58594s0.58594 0.88281 0.58594 1.4141-0.21094 1.0391-0.58594 1.4141-0.88281 0.58594-1.4141 0.58594zm1026.2-59.941h45.016c0.43359 0 0.85156 0.14063 1.1992 0.39844 0.015625 0.007812 0.027344 0.019531 0.039062 0.03125 0.066407 0.050781 0.125 0.10547 0.18359 0.16406l25.703 25.699c0.035157 0.039063 0.066407 0.074219 0.10156 0.11328v0.003907c0.35547 0.39844 0.52734 0.92969 0.47656 1.4609v58.625c-0.003906 4.1406-3.3594 7.4961-7.5 7.5h-65.219c-4.1406-0.007812-7.4961-3.3594-7.5-7.5v-79c0.007813-4.1367 3.3594-7.4883 7.5-7.4961zm43.016 4h-43.016c-1.9297 0.007813-3.4883 1.5664-3.4961 3.4961v79c0 1.9297 1.5625 3.4961 3.4961 3.5039h65.227c1.9297-0.003906 3.4922-1.5703 3.4961-3.5h0.011719v-56.793h-18.223c-4.1367-0.003906-7.4922-3.3555-7.4961-7.4961zm7.5 21.715h15.387l-18.887-18.887v15.387-0.003906c0.007813 1.9336 1.5703 3.4961 3.5039 3.5zm-39.559 50.801-0.003907-0.003907c-1.1016 0-2-0.89453-2-2s0.89844-2 2-2h16.93c1.1055 0 2 0.89453 2 2s-0.89453 2-2 2zm0-14.871-0.003907-0.003906c-1.1016 0-2-0.89453-2-2 0-1.1016 0.89844-2 2-2h16.93c1.1055 0 2 0.89844 2 2 0 1.1055-0.89453 2-2 2zm0-29.742h-0.003907c-1.1016 0-2-0.89844-2-2 0-1.1055 0.89844-2 2-2h22.75c1.1055 0 2 0.89453 2 2 0 1.1016-0.89453 2-2 2zm0 14.871h-0.003907c-1.1016 0-2-0.89453-2-2s0.89844-2 2-2h43.324c1.1055 0 2 0.89453 2 2s-0.89453 2-2 2zm33.176 12.363h-0.003907c-0.41016-0.37891-0.64062-0.91016-0.64453-1.4648 0-0.55859 0.23047-1.0938 0.63672-1.4727 0.41016-0.37891 0.95703-0.57031 1.5156-0.52734 0.55469 0.039062 1.0664 0.3125 1.4141 0.75l8.6016 9.1992c0.40625 0.375 0.63672 0.90234 0.63672 1.457 0 0.55078-0.23047 1.082-0.63672 1.457l-8.6016 9.1992c-0.35156 0.42578-0.86328 0.69141-1.4141 0.72656-0.55078 0.039062-1.0938-0.15625-1.4961-0.53125-0.40234-0.37891-0.63281-0.90625-0.63672-1.457 0-0.55078 0.22656-1.082 0.625-1.4609l5.5508-5.9375-12.953 0.003907c-1.1055 0-2-0.89844-2-2 0-1.1055 0.89453-2 2-2h12.953zm-135.72-32.449h14.363l-17.582-17.578v14.359-0.003906c0.003906 1.7773 1.4453 3.2148 3.2188 3.2227zm-41.762 34.441h15.125l0.003906-0.003907c0.53125 0 1.0391 0.21094 1.4141 0.58594s0.58594 0.88672 0.58594 1.4141v15.121c0 0.53125-0.21094 1.0391-0.58594 1.4141s-0.88281 0.58594-1.4141 0.58594h-15.125c-1.1055 0-2-0.89453-2-2v-15.121c0-1.1016 0.89453-2 2-2zm13.125 4h-11.125v11.125h11.125zm-479.78-65.129h45.043c0.42188 0.003907 0.82812 0.14453 1.1641 0.39844 0.015624 0.007812 0.03125 0.023438 0.042968 0.039062 0.070313 0.046876 0.13281 0.10547 0.1875 0.16406l25.699 25.699c0.039063 0.035156 0.070313 0.074218 0.10156 0.11328 0.35547 0.40234 0.52734 0.92969 0.48047 1.4609v58.621c-0.007812 4.1406-3.3633 7.4922-7.5 7.5h-65.227c-4.1406-0.007812-7.4961-3.3594-7.5-7.5v-79c0.007812-4.1367 3.3594-7.4922 7.5-7.5zm43.016 4h-43.016c-1.9297 0.003907-3.4922 1.5664-3.4961 3.4961v79c0 1.9336 1.5664 3.5 3.4961 3.5039h65.227c1.9297-0.007812 3.4922-1.5703 3.5-3.5h0.011719v-56.789h-18.223c-4.1406-0.003906-7.4922-3.3594-7.4961-7.5zm7.4922 21.715h15.387l-18.879-18.887v15.387-0.003906c0.003907 1.9297 1.5664 3.4922 3.4961 3.5zm99.492-25.715h45.043c0.42188 0.003907 0.82812 0.14453 1.1602 0.39844 0.019531 0.011719 0.035157 0.023438 0.050781 0.039062 0.066407 0.050782 0.125 0.10547 0.18359 0.16406l25.703 25.699c0.035157 0.039062 0.066407 0.074218 0.10156 0.11328 0.35547 0.40234 0.52734 0.92969 0.47656 1.4609v58.621c-0.003906 4.1406-3.3594 7.4961-7.5 7.5h-65.227c-4.1406-0.007812-7.4922-3.3594-7.5-7.5v-79c0.007812-4.1367 3.3633-7.4922 7.5-7.5zm43.016 4h-43.016c-1.9258 0.007813-3.4883 1.5703-3.4961 3.4961v79c0.003907 1.9297 1.5664 3.4961 3.4961 3.5039h65.227c1.9297-0.003906 3.4922-1.5703 3.4961-3.5h0.011719v-56.793h-18.223c-4.1367-0.003906-7.4922-3.3594-7.5-7.5zm7.5 21.715h15.387l-18.887-18.887v15.387-0.003906c0.003907 1.9297 1.5664 3.4961 3.4961 3.5zm-15.902 18.727c-1.1016 0-2-0.89453-2-2s0.89844-2 2-2h14c0.53125 0 1.0391 0.21094 1.4141 0.58594s0.58594 0.88281 0.58594 1.4141v31.992c0 0.52734-0.21094 1.0391-0.58594 1.4141s-0.88281 0.58594-1.4141 0.58594h-32c-1.1016 0-2-0.89844-2-2v-13.875c0-1.1016 0.89844-2 2-2 0.53125 0 1.0391 0.21094 1.4141 0.58594s0.58594 0.88672 0.58594 1.4141v11.871h28v-27.988zm115.4-44.449h45l0.003906 0.003906c0.43359 0 0.85156 0.14062 1.1992 0.39844 0.015625 0.007812 0.027344 0.015625 0.039062 0.03125 0.0625 0.050781 0.12109 0.10547 0.17578 0.16406l25.703 25.699c0.035156 0.039063 0.066406 0.074219 0.10156 0.11328h0.003907c0.35156 0.40234 0.52734 0.92969 0.47656 1.4609v58.633c-0.003906 4.1406-3.3555 7.4922-7.4922 7.5h-65.227c-4.1406-0.007812-7.4961-3.3594-7.5-7.5v-79c0.007812-4.1367 3.3594-7.4922 7.5-7.5zm43 4h-43l0.003906 0.003906c-1.9297 0.003906-3.4961 1.5664-3.5039 3.4961v79c0.003906 1.9297 1.5625 3.4961 3.4922 3.5078h65.227c1.9297-0.007812 3.4922-1.5703 3.4961-3.5v-56.793h-18.223c-4.1367-0.003906-7.4922-3.3555-7.5-7.4961zm7.5 21.715h15.387l-18.883-18.879v15.387-0.003906c0.003907 1.9297 1.5664 3.4922 3.4961 3.5zm-34.086 48.293c-1.1016 0-2-0.89844-2-2 0-1.1055 0.89844-2 2-2h32.375c0.52734 0 1.0391 0.21094 1.4141 0.58594s0.58594 0.88281 0.58594 1.4141c0 0.52734-0.21094 1.0391-0.58594 1.4141s-0.88672 0.58594-1.4141 0.58594zm7.375 7.6016 0.003906-0.003906c-1.1055 0-2-0.89453-2-2s0.89453-2 2-2h17.625c0.53125 0 1.0391 0.21094 1.4141 0.58594s0.58594 0.88281 0.58594 1.4141-0.21094 1.0391-0.58594 1.4141-0.88281 0.58594-1.4141 0.58594zm-473.8-81.602h45.004c0.43359 0 0.85156 0.14063 1.1992 0.39844 0.015625 0.007812 0.027344 0.015625 0.039063 0.03125 0.0625 0.050781 0.12109 0.10547 0.17578 0.16406l25.703 25.699c0.035156 0.039063 0.066406 0.074219 0.10156 0.11328h0.003907c0.35156 0.40234 0.52734 0.92969 0.47656 1.4609v58.629c-0.003906 4.1406-3.3555 7.4922-7.4961 7.5h-65.227 0.003906c-4.1406-0.007812-7.4961-3.3594-7.5-7.5v-79c0.007813-4.1367 3.3594-7.4922 7.5-7.5zm43 4h-43 0.003906c-1.9297 0.003907-3.4961 1.5664-3.5039 3.4961v79c0.003906 1.9336 1.5703 3.5 3.5039 3.5039h65.227c1.9297-0.007812 3.4922-1.5703 3.4961-3.5v-56.793h-18.223c-4.1367-0.003906-7.4922-3.3555-7.5-7.4961zm7.5 21.715h15.387l-18.871-18.887v15.387-0.003906c0.003907 1.9297 1.5664 3.4922 3.4961 3.5zm-34.074 48.285c-1.1016 0-2-0.89844-2-2 0-1.1055 0.89844-2 2-2h32.375c0.52734 0 1.0391 0.21094 1.4141 0.58594s0.58594 0.88281 0.58594 1.4141c0 0.52734-0.21094 1.0391-0.58594 1.4141s-0.88672 0.58594-1.4141 0.58594zm7.375 7.6016 0.003906-0.003906c-1.1055 0-2-0.89453-2-2s0.89453-2 2-2h17.625c0.53125 0 1.0391 0.21094 1.4141 0.58594s0.58594 0.88281 0.58594 1.4141-0.21094 1.0391-0.58594 1.4141-0.88281 0.58594-1.4141 0.58594zm8.8008-52.801v-0.003906c4.8281 0 9.4609 1.9141 12.871 5.3281 3.4141 3.4141 5.332 8.0469 5.3281 12.875 0 6.2383-3.1992 12.043-8.4766 15.375-0.015625 0.007813-0.03125 0.015626-0.046875 0.027344-2.8945 1.8203-6.2422 2.7812-9.6641 2.7773-4.8203 0-9.4453-1.9141-12.855-5.3242-3.4062-3.4102-5.3242-8.0352-5.3242-12.855 0-4.8242 1.9141-9.4492 5.3242-12.859 3.4102-3.4102 8.0352-5.3281 12.855-5.3281zm10.031 8.1562c-2.6602-2.6602-6.2656-4.1562-10.027-4.1562s-7.3711 1.4961-10.031 4.1562c-5.3828 5.3789-5.5586 14.043-0.39844 19.637 0.82031-3.3984 3.8633-5.793 7.3594-5.7969h6.1562c3.5 0.007812 6.5391 2.4102 7.3516 5.8125 5.1562-5.5938 4.9805-14.258-0.39844-19.637zm-16.66 22.57c4.1484 2.1875 9.1133 2.1875 13.266 0 0-1.4258 0.10937-2.5469-1.0508-3.7031-0.66406-0.66797-1.5664-1.043-2.5078-1.043h-6.1562c-1.957 0.007813-3.5391 1.5898-3.5508 3.5469zm6.6406-23.043c3.8984 0 7.0586 3.1602 7.0586 7.0547 0 1.875-0.74219 3.668-2.0664 4.9922-1.3242 1.3242-3.1172 2.0664-4.9922 2.0664-3.8945 0-7.0547-3.1602-7.0547-7.0586 0-3.8945 3.1602-7.0547 7.0547-7.0547zm2.1602 4.8984c-1.9141-1.9219-5.2148-0.55469-5.2148 2.1602 0 2.7148 3.3008 4.082 5.2148 2.1641 0.57422-0.57422 0.89844-1.3516 0.89844-2.1641s-0.32422-1.5898-0.89844-2.1641zm-109.27-9.9336-3.3633-1.9453-2.3281 4.0469 3.3633 1.9414zm-27.512 41.625-0.52734 3.0625 2.3984-1.9844zm1040.6-45.625h13.562l-16.566-16.562v13.559c0.007813 1.6562 1.3477 2.9922 3 3zm-36 46.586c-1.1055 0-2-0.89453-2-2 0-1.1016 0.89453-2 2-2h15.402c1.1016 0 2 0.89844 2 2 0 1.1055-0.89844 2-2 2zm0-13.527c-1.1055 0-2-0.89453-2-2s0.89453-2 2-2h15.402c1.1016 0 2 0.89453 2 2s-0.89844 2-2 2zm0-27.059c-1.1055 0-2-0.89453-2-2s0.89453-2 2-2h20.711c1.1055 0 2 0.89453 2 2s-0.89453 2-2 2z"/></svg>