<svg xmlns="http://www.w3.org/2000/svg" version="1.1" viewBox="-5.0 -10.0 90.0 110.0">
  <rect x="-5.0" y="-10.0" width="110.0" height="135.0" fill="#F3F4F6"/>
  <g fill="#00a6d0">
    <path d="m95.832 63.543c0.58203 0 1.043-0.45703 1.043-1.043v-45.832c0-0.58203-0.45703-1.043-1.043-1.043h-17.707v-7.293c0-0.51953-0.39453-0.98047-0.91797-1.043l-35.414-4.1641c-0.29297-0.042969-0.60547 0.0625-0.8125 0.26953-0.23047 0.1875-0.35547 0.48047-0.35547 0.76953v36.457h-9.375c-0.26953 0-0.5 0.10547-0.6875 0.25-0.019531 0.042968-0.042969 0.0625-0.082031 0.082031l-27.086 29.172c-0.375 0.41797-0.35547 1.082 0.0625 1.4805 0.20703 0.1875 0.45703 0.26953 0.70703 0.26953 0.26953 0 0.5625-0.10547 0.76953-0.33203l26.312-28.355 26.043 28.062v23.543h-12.5v-21.875c0-0.58203-0.45703-1.043-1.043-1.043h-14.582c-0.58203 0-1.043 0.45703-1.043 1.043v21.875h-12.5v-23.562l18.48-20.543c0.39453-0.41797 0.35547-1.082-0.082031-1.457-0.41797-0.39453-1.082-0.35547-1.457 0.082031l-18.75 20.832c-0.16797 0.1875-0.26953 0.4375-0.26953 0.6875v23.957h-4.168v-21.875c0-0.58203-0.45703-1.043-1.043-1.043-0.58203 0-1.043 0.45703-1.043 1.043v22.918c0 0.58203 0.45703 1.043 1.043 1.043h81.25c0.58203 0 1.043-0.45703 1.043-1.043v-23.957h5.207c0.41797 0 0.79297-0.25 0.95703-0.625 0.16797-0.375 0.082032-0.8125-0.1875-1.125l-11.918-12.832h4.8945c0.58203 0 1.043-0.45703 1.043-1.043v-6.25c0-0.58203-0.45703-1.043-1.043-1.043h-6.25c-0.58203 0-1.043 0.45703-1.043 1.043v4.707l-12.5-13.457v-10c0-0.58203-0.45703-1.043-1.043-1.043h-6.25c-0.58203 0-1.043 0.45703-1.043 1.043v9.375h-4.168v-9.375c0-0.58203-0.45703-1.043-1.043-1.043h-6.25c-0.58203 0-1.043 0.45703-1.043 1.043v9.375h-6.25l0.011719-35.293 33.332 3.918v34.5c0 0.58203 0.45703 1.043 1.043 1.043 0.58203 0 1.043-0.45703 1.043-1.043v-26.043h16.668v44.793c0 0.58203 0.45703 1.043 1.043 1.043zm-27.539-20.836 25.145 27.082h-34.645l-25.145-27.082z"/>
    <path d="m50 13.543h6.25c0.57422 0 1.043 0.57422 1.043 1.043v10.418c0 0.57422-0.46484 1.043-1.043 1.043h-6.25c-0.57422 0-1.043-0.57422-1.043-1.043v-10.418c0-0.57422 0.46484-1.043 1.043-1.043z"/>
    <path d="m62.5 13.543h6.25c0.57422 0 1.043 0.57422 1.043 1.043v10.418c0 0.57422-0.46484 1.043-1.043 1.043h-6.25c-0.57422 0-1.043-0.57422-1.043-1.043v-10.418c0-0.57422 0.46484-1.043 1.043-1.043z"/>
    <path d="m83.332 23.957h6.25c0.57422 0 1.043 0.57422 1.043 1.043v6.25c0 0.57422-0.46484 1.043-1.043 1.043h-6.25c-0.57422 0-1.043-0.57422-1.043-1.043v-6.25c0-0.57422 0.46484-1.043 1.043-1.043z"/>
    <path d="m83.332 36.457h6.25c0.57422 0 1.043 0.57422 1.043 1.043v6.25c0 0.57422-0.46484 1.043-1.043 1.043h-6.25c-0.57422 0-1.043-0.57422-1.043-1.043v-6.25c0-0.57422 0.46484-1.043 1.043-1.043z"/>
    <path d="m9.3555 42.395c0.20703 0.20703 0.48047 0.3125 0.73047 0.3125 0.26953 0 0.54297-0.10547 0.75-0.3125l15.98-16.043 2.2305 2.207c0.26953 0.26953 0.70703 0.375 1.082 0.23047 0.375-0.125 0.625-0.45703 0.6875-0.85547l1.4805-13.23c0.019531-0.33203-0.082031-0.64453-0.3125-0.85547-0.20703-0.23047-0.54297-0.35547-0.83203-0.3125l-13.332 1.4805c-0.39453 0.042969-0.73047 0.3125-0.875 0.6875-0.125 0.375-0.042968 0.8125 0.25 1.082l2.2305 2.207-15.98 16.043c-0.20703 0.20703-0.3125 0.45703-0.3125 0.75 0 0.26953 0.10547 0.54297 0.3125 0.73047l5.918 5.875z"/>
  </g>
</svg>